<svg xmlns="http://www.w3.org/2000/svg" width="42" height="42" fill="none" viewBox="0 0 42 42"><circle cx="21" cy="21" r="21" fill="#060707"/><g clip-path="url(#clip0_1_13)"><path fill="#fff" d="M27.552 10.0802H14.4481C13.473 10.0698 12.5219 10.3825 11.7432 10.9695C10.9645 11.5565 10.402 12.3848 10.1436 13.325C9.88511 14.2653 9.94519 15.2647 10.3144 16.1672C10.6837 17.0697 11.3413 17.8247 12.1847 18.3141C13.0281 18.8036 14.0098 19.0001 14.9766 18.873C15.9434 18.7459 16.841 18.3023 17.5292 17.6114C18.2174 16.9205 18.6575 16.0213 18.7809 15.054C18.9042 14.0867 18.7039 13.1057 18.2112 12.2642H23.7889C23.3108 13.0956 23.1203 14.0615 23.2472 15.0121C23.3741 15.9628 23.8112 16.8449 24.4907 17.5217C25.1702 18.1986 26.054 18.6322 27.0051 18.7554C27.9563 18.8786 28.9214 18.6844 29.7509 18.203C30.5804 17.7216 31.2278 16.9799 31.5927 16.093C31.9575 15.206 32.0195 14.2235 31.7689 13.2977C31.5183 12.372 30.9691 11.5549 30.2067 10.9731C29.4442 10.3913 28.5111 10.0775 27.552 10.0802ZM16.6321 14.4482C16.6321 14.8802 16.504 15.3024 16.264 15.6616C16.024 16.0208 15.6829 16.3007 15.2838 16.466C14.8848 16.6313 14.4456 16.6745 14.022 16.5903C13.5983 16.506 13.2092 16.298 12.9037 15.9926C12.5983 15.6871 12.3903 15.298 12.306 14.8743C12.2217 14.4507 12.265 14.0115 12.4303 13.6125C12.5956 13.2134 12.8755 12.8723 13.2347 12.6323C13.5938 12.3923 14.0161 12.2642 14.4481 12.2642C14.735 12.2636 15.0193 12.3197 15.2846 12.4292C15.5498 12.5388 15.7908 12.6996 15.9938 12.9025C16.1967 13.1055 16.3575 13.3465 16.4671 13.6117C16.5766 13.877 16.6327 14.1613 16.6321 14.4482ZM27.552 16.6322C27.1201 16.6322 26.6978 16.5041 26.3387 16.2642C25.9795 16.0242 25.6996 15.6831 25.5343 15.284C25.369 14.8849 25.3257 14.4458 25.41 14.0222C25.4943 13.5985 25.7023 13.2094 26.0077 12.9039C26.3132 12.5985 26.7023 12.3905 27.126 12.3062C27.5496 12.2219 27.9888 12.2652 28.3878 12.4305C28.7869 12.5958 29.128 12.8757 29.368 13.2349C29.608 13.594 29.736 14.0163 29.736 14.4482C29.7367 14.7352 29.6806 15.0195 29.5711 15.2847C29.4615 15.55 29.3007 15.791 29.0977 15.9939C28.8948 16.1969 28.6538 16.3577 28.3886 16.4672C28.1233 16.5768 27.839 16.6329 27.552 16.6322Z"/><path fill="#fff" d="M16.6318 31.9196H18.8158V24.2922H19.9245V31.9196H22.1085V24.2922H23.1838V31.9196H25.3678V22.1082H16.6318V31.9196Z"/><path fill="#fff" d="M25.3678 18.8163H16.6318V21.0003H25.3678V18.8163Z"/></g><defs><clipPath id="clip0_1_13"><rect width="21.84" height="21.84" fill="#fff" transform="translate(10.08 10.08)"/></clipPath></defs></svg>