<svg width="25" height="25" viewBox="0 0 25 25" fill="none" xmlns="http://www.w3.org/2000/svg">
<path d="M12.5377 0.135579V0.147894C12.55 0.20947 12.55 0.283362 12.55 0.357253V9.23656C12.5377 9.28582 12.5008 9.29814 12.4638 9.32277C12.2052 9.44592 11.9589 9.55676 11.7003 9.6676C11.3432 9.8277 10.9737 10.0001 10.6166 10.1602L9.32345 10.7513C8.9663 10.9114 8.60916 11.0715 8.26433 11.2316C7.84561 11.4287 7.41458 11.6134 6.99586 11.8105C6.63872 11.9706 6.28157 12.143 5.91212 12.3031C5.61655 12.4385 5.32098 12.5617 5.03773 12.6972C5.0131 12.7095 4.98847 12.7218 4.96384 12.7218C4.95152 12.7218 4.95152 12.7218 4.93921 12.7095L5.27172 12.1553C5.91212 11.0962 6.54019 10.0494 7.18059 8.99026C7.85793 7.85725 8.54758 6.72425 9.22492 5.59124C9.853 4.54445 10.4934 3.49765 11.1215 2.45085C11.5771 1.6873 12.0451 0.923756 12.5008 0.160209C12.5131 0.135579 12.5254 0.123263 12.5254 0.0986328H12.5377C12.5254 0.110948 12.5377 0.123263 12.5377 0.135579Z" fill="#494949"/>
<path d="M20.0985 12.7094L20.1108 12.7217L18.3004 13.7932L12.6108 17.1552C12.5862 17.1676 12.5615 17.1799 12.5492 17.1922C12.5123 17.1922 12.5123 17.1552 12.5123 17.1429V17.0321V9.42125C12.5123 9.3843 12.5123 9.33504 12.5246 9.2981C12.5369 9.24884 12.5738 9.26115 12.6108 9.27347C12.7709 9.34736 12.9433 9.42125 13.1034 9.49514C13.5837 9.71682 14.064 9.93849 14.5443 10.1479C14.963 10.3326 15.3694 10.5296 15.7881 10.7144C16.2069 10.8991 16.6256 11.0961 17.0443 11.2809C17.4014 11.441 17.7709 11.6134 18.128 11.7735C18.4852 11.9336 18.8546 12.106 19.2118 12.2661C19.495 12.3892 19.7783 12.5247 20.0615 12.6479C20.0615 12.6848 20.0738 12.6971 20.0985 12.7094Z" fill="#141414"/>
<path d="M12.5368 24.84C12.5368 24.8523 12.5245 24.8646 12.5245 24.8769H12.5122C12.5122 24.8523 12.4876 24.84 12.4752 24.8153C11.7117 23.7439 10.9481 22.6602 10.1846 21.5887C9.40874 20.4927 8.62056 19.3843 7.8447 18.2882C7.09347 17.2291 6.32992 16.1577 5.57869 15.0986C5.38164 14.8153 5.1846 14.5444 4.98755 14.2611C4.97524 14.2365 4.96292 14.2242 4.93829 14.1873C4.97524 14.1873 4.99987 14.2119 5.01219 14.2242C6.08361 14.8523 7.14273 15.4804 8.21416 16.1084C9.44568 16.835 10.6649 17.5616 11.8964 18.2882L12.5245 18.6577C12.5491 18.6823 12.5491 18.707 12.5491 18.7316V24.6676C12.5491 24.7291 12.5491 24.7907 12.5368 24.84Z" fill="#494949"/>
<path d="M4.92603 12.7341V12.7218C5.32011 12.5494 5.70189 12.3647 6.09598 12.1923C6.6009 11.9583 7.10583 11.7366 7.61075 11.5026C7.99253 11.3302 8.38661 11.1455 8.76838 10.9731C9.33489 10.7144 9.88908 10.4681 10.4556 10.2095C10.8374 10.0371 11.2191 9.86468 11.6132 9.67995C11.8842 9.5568 12.1674 9.43364 12.4383 9.31049C12.463 9.29818 12.4999 9.28586 12.5122 9.26123C12.5245 9.26123 12.5245 9.27355 12.5122 9.28586V17.1061C12.5122 17.143 12.4999 17.1799 12.5245 17.2046C12.4999 17.2415 12.4753 17.2046 12.463 17.1923C12.3521 17.1307 12.2413 17.0691 12.1305 16.9952C9.7536 15.5913 7.36444 14.175 4.9876 12.7711C4.97529 12.7588 4.95066 12.7465 4.92603 12.7341Z" fill="#2D2D2D"/>
<path d="M20.0737 14.1873H20.086C20.086 14.2119 20.0614 14.2365 20.049 14.2611C17.783 17.4508 15.517 20.6528 13.251 23.8424C13.017 24.1749 12.7707 24.5074 12.5367 24.84C12.5244 24.8276 12.5244 24.8153 12.5244 24.803V24.7291V18.7562V18.6454C13.0417 18.3375 13.5466 18.0419 14.0638 17.7341C16.0589 16.5518 18.054 15.3818 20.0367 14.1996C20.049 14.2119 20.0614 14.1996 20.0737 14.1873Z" fill="#2D2D2D"/>
<path d="M12.5246 9.28588V9.26125V9.18736V0.246471C12.5246 0.209526 12.5123 0.184895 12.5369 0.147949C15.0369 4.2982 17.5369 8.43613 20.0246 12.5864C20.0493 12.6233 20.0862 12.6726 20.0985 12.7218C19.9261 12.6603 19.766 12.5741 19.6059 12.5002C19.4089 12.414 19.1995 12.3154 19.0025 12.2292C18.8793 12.1677 18.7438 12.1184 18.6207 12.0568C18.4113 11.9583 18.202 11.8721 17.9926 11.7736C17.8695 11.7243 17.7463 11.6627 17.6232 11.6012L16.8103 11.2317C16.6749 11.1701 16.5394 11.1085 16.3916 11.047L15.8005 10.7883C15.6773 10.7391 15.5542 10.6775 15.431 10.6159L14.6182 10.2465C14.4828 10.1849 14.3473 10.1233 14.1995 10.0617L13.6084 9.80312C13.4729 9.74155 13.3498 9.67997 13.2143 9.61839C12.9803 9.50756 12.7463 9.39672 12.5 9.2982C12.5369 9.28588 12.5246 9.28588 12.5246 9.28588Z" fill="#2D2D2D"/>
</svg>
