<svg width="138" height="44" viewBox="0 0 138 44" fill="none" xmlns="http://www.w3.org/2000/svg">
<path d="M0 21.8372C0 14.3957 6.03251 8.36316 13.474 8.36316C20.9155 8.36316 26.948 14.3957 26.948 21.8372C26.948 29.2786 20.9155 35.3112 13.474 35.3112C6.03251 35.3112 0 29.2786 0 21.8372Z" fill="#1F2324"/>
<path d="M16.3441 30.2457L14.4364 28.338C13.8947 27.7963 13.0187 27.7963 12.4827 28.338L10.5751 30.2457C10.0161 30.8047 9.10547 30.8047 8.54644 30.2457L7.62433 29.3235L10.5463 26.4016C12.1542 24.7937 14.7592 24.7937 16.3671 26.4016L19.2891 29.3235L18.3669 30.2457C17.8137 30.8047 16.9089 30.8047 16.3441 30.2457Z" fill="white"/>
<path d="M5.98757 27.6811L5.06545 26.7589C4.50642 26.1999 4.50642 25.2893 5.06545 24.7303L6.97307 22.8227C7.51482 22.2809 7.51482 21.4049 6.97307 20.8689L5.06545 18.9613C4.50642 18.4023 4.50642 17.4917 5.06545 16.9327L5.98757 16.0106L8.90951 18.9325C10.5174 20.5404 10.5174 23.1454 8.90951 24.7533L5.98757 27.6811Z" fill="white"/>
<path d="M13.4855 18.4772C12.4308 18.4772 11.3762 18.0796 10.5751 17.2727L7.65314 14.3508L8.57525 13.4286C9.13428 12.8696 10.0449 12.8696 10.6039 13.4286L12.5115 15.3363C13.0475 15.8722 13.9293 15.8722 14.4652 15.3363L16.3729 13.4286C16.9319 12.8696 17.8425 12.8696 18.4015 13.4286L19.3236 14.3508L16.4017 17.2727C15.5948 18.068 14.5402 18.4772 13.4855 18.4772Z" fill="white"/>
<path d="M20.9604 27.658L18.0384 24.736C16.4305 23.1281 16.4305 20.5231 18.0384 18.9152L20.9604 15.9933L21.8825 16.9154C22.4415 17.4744 22.4415 18.385 21.8825 18.944L19.9749 20.8516C19.4331 21.3934 19.4331 22.2694 19.9749 22.8054L21.8825 24.713C22.4415 25.272 22.4415 26.1826 21.8825 26.7416L20.9604 27.658Z" fill="white"/>
<path d="M32.2911 16.2913V9.74582H34.6242C35.1335 9.74582 35.5553 9.8385 35.8899 10.0239C36.2244 10.2092 36.4747 10.4628 36.6409 10.7845C36.8071 11.1041 36.8902 11.4642 36.8902 11.8648C36.8902 12.2675 36.8061 12.6297 36.6377 12.9514C36.4715 13.271 36.2201 13.5246 35.8835 13.7121C35.549 13.8975 35.1281 13.9901 34.621 13.9901H33.0166V13.1528H34.5315C34.8533 13.1528 35.1143 13.0974 35.3146 12.9866C35.5149 12.8737 35.6619 12.7203 35.7556 12.5264C35.8494 12.3325 35.8963 12.1119 35.8963 11.8648C35.8963 11.6176 35.8494 11.3982 35.7556 11.2064C35.6619 11.0146 35.5138 10.8644 35.3114 10.7558C35.1111 10.6471 34.8469 10.5928 34.5188 10.5928H33.2787V16.2913H32.2911Z" fill="black"/>
<path d="M39.9776 16.3904C39.5173 16.3904 39.1157 16.2849 38.7727 16.0739C38.4296 15.863 38.1633 15.5679 37.9737 15.1886C37.784 14.8094 37.6892 14.3662 37.6892 13.8591C37.6892 13.3499 37.784 12.9046 37.9737 12.5232C38.1633 12.1418 38.4296 11.8456 38.7727 11.6347C39.1157 11.4237 39.5173 11.3183 39.9776 11.3183C40.4378 11.3183 40.8394 11.4237 41.1825 11.6347C41.5255 11.8456 41.7918 12.1418 41.9815 12.5232C42.1711 12.9046 42.2659 13.3499 42.2659 13.8591C42.2659 14.3662 42.1711 14.8094 41.9815 15.1886C41.7918 15.5679 41.5255 15.863 41.1825 16.0739C40.8394 16.2849 40.4378 16.3904 39.9776 16.3904ZM39.9808 15.5881C40.2791 15.5881 40.5262 15.5093 40.7222 15.3516C40.9183 15.194 41.0632 14.9841 41.1569 14.722C41.2528 14.46 41.3007 14.1712 41.3007 13.8559C41.3007 13.5427 41.2528 13.2551 41.1569 12.993C41.0632 12.7288 40.9183 12.5168 40.7222 12.357C40.5262 12.1972 40.2791 12.1173 39.9808 12.1173C39.6803 12.1173 39.4311 12.1972 39.2329 12.357C39.0369 12.5168 38.8909 12.7288 38.795 12.993C38.7013 13.2551 38.6544 13.5427 38.6544 13.8559C38.6544 14.1712 38.7013 14.46 38.795 14.722C38.8909 14.9841 39.0369 15.194 39.2329 15.3516C39.4311 15.5093 39.6803 15.5881 39.9808 15.5881Z" fill="black"/>
<path d="M44.2475 16.2913L42.8029 11.3822H43.7904L44.7524 14.9873H44.8004L45.7656 11.3822H46.7531L47.7119 14.9713H47.7599L48.7155 11.3822H49.7031L48.2617 16.2913H47.2869L46.2897 12.7469H46.2162L45.2191 16.2913H44.2475Z" fill="black"/>
<path d="M52.5763 16.3904C52.0926 16.3904 51.6761 16.287 51.3266 16.0803C50.9793 15.8715 50.7109 15.5786 50.5213 15.2014C50.3338 14.8222 50.24 14.3779 50.24 13.8687C50.24 13.3658 50.3338 12.9227 50.5213 12.5391C50.7109 12.1556 50.9751 11.8563 51.3139 11.6411C51.6548 11.4259 52.0532 11.3183 52.5092 11.3183C52.7862 11.3183 53.0546 11.3641 53.3146 11.4557C53.5745 11.5473 53.8078 11.6911 54.0145 11.8872C54.2212 12.0832 54.3842 12.3378 54.5035 12.651C54.6228 12.9621 54.6825 13.3403 54.6825 13.7856V14.1244H50.7801V13.4085H53.746C53.746 13.157 53.6949 12.9344 53.5926 12.7405C53.4904 12.5445 53.3465 12.39 53.1612 12.2771C52.9779 12.1641 52.7627 12.1077 52.5156 12.1077C52.2471 12.1077 52.0127 12.1737 51.8124 12.3058C51.6143 12.4358 51.4609 12.6063 51.3522 12.8172C51.2457 13.026 51.1924 13.2529 51.1924 13.4979V14.0573C51.1924 14.3854 51.2499 14.6645 51.365 14.8946C51.4822 15.1247 51.6452 15.3005 51.854 15.422C52.0628 15.5413 52.3068 15.6009 52.5859 15.6009C52.767 15.6009 52.9321 15.5754 53.0813 15.5242C53.2304 15.471 53.3593 15.3921 53.468 15.2877C53.5767 15.1833 53.6597 15.0544 53.7173 14.901L54.6217 15.064C54.5493 15.3303 54.4193 15.5636 54.2318 15.7639C54.0465 15.9621 53.8132 16.1166 53.5319 16.2274C53.2528 16.336 52.9342 16.3904 52.5763 16.3904Z" fill="black"/>
<path d="M55.7428 16.2913V11.3822H56.6664V12.162H56.7175C56.807 11.8978 56.9647 11.6901 57.1906 11.5388C57.4185 11.3854 57.6763 11.3087 57.964 11.3087C58.0236 11.3087 58.094 11.3108 58.1749 11.3151C58.258 11.3193 58.323 11.3247 58.3699 11.331V12.2451C58.3315 12.2345 58.2633 12.2227 58.1653 12.21C58.0673 12.195 57.9693 12.1876 57.8713 12.1876C57.6455 12.1876 57.4441 12.2355 57.2673 12.3314C57.0925 12.4252 56.954 12.5562 56.8518 12.7245C56.7495 12.8907 56.6984 13.0803 56.6984 13.2934V16.2913H55.7428Z" fill="black"/>
<path d="M61.1368 16.3904C60.6532 16.3904 60.2366 16.287 59.8872 16.0803C59.5399 15.8715 59.2714 15.5786 59.0818 15.2014C58.8943 14.8222 58.8005 14.3779 58.8005 13.8687C58.8005 13.3658 58.8943 12.9227 59.0818 12.5391C59.2714 12.1556 59.5356 11.8563 59.8744 11.6411C60.2153 11.4259 60.6138 11.3183 61.0697 11.3183C61.3467 11.3183 61.6152 11.3641 61.8751 11.4557C62.1351 11.5473 62.3684 11.6911 62.5751 11.8872C62.7817 12.0832 62.9447 12.3378 63.064 12.651C63.1834 12.9621 63.243 13.3403 63.243 13.7856V14.1244H59.3407V13.4085H62.3066C62.3066 13.157 62.2555 12.9344 62.1532 12.7405C62.0509 12.5445 61.9071 12.39 61.7217 12.2771C61.5385 12.1641 61.3233 12.1077 61.0761 12.1077C60.8077 12.1077 60.5733 12.1737 60.373 12.3058C60.1748 12.4358 60.0214 12.6063 59.9128 12.8172C59.8062 13.026 59.753 13.2529 59.753 13.4979V14.0573C59.753 14.3854 59.8105 14.6645 59.9255 14.8946C60.0427 15.1247 60.2057 15.3005 60.4145 15.422C60.6233 15.5413 60.8673 15.6009 61.1464 15.6009C61.3275 15.6009 61.4927 15.5754 61.6418 15.5242C61.791 15.471 61.9199 15.3921 62.0285 15.2877C62.1372 15.1833 62.2203 15.0544 62.2778 14.901L63.1823 15.064C63.1099 15.3303 62.9799 15.5636 62.7924 15.7639C62.607 15.9621 62.3737 16.1166 62.0925 16.2274C61.8133 16.336 61.4948 16.3904 61.1368 16.3904Z" fill="black"/>
<path d="M66.141 16.3872C65.7447 16.3872 65.391 16.2859 65.0799 16.0835C64.771 15.879 64.5281 15.5881 64.3512 15.211C64.1765 14.8318 64.0892 14.3769 64.0892 13.8463C64.0892 13.3158 64.1776 12.8619 64.3544 12.4848C64.5334 12.1077 64.7784 11.819 65.0895 11.6187C65.4006 11.4184 65.7532 11.3183 66.1474 11.3183C66.4521 11.3183 66.6971 11.3694 66.8825 11.4717C67.07 11.5718 67.2149 11.689 67.3172 11.8232C67.4216 11.9575 67.5025 12.0757 67.56 12.178H67.6176V9.74582H68.5732V16.2913H67.6399V15.5274H67.56C67.5025 15.6318 67.4194 15.7511 67.3108 15.8854C67.2042 16.0196 67.0572 16.1368 66.8697 16.2369C66.6822 16.3371 66.4393 16.3872 66.141 16.3872ZM66.352 15.5722C66.6268 15.5722 66.8591 15.4997 67.0487 15.3548C67.2404 15.2078 67.3853 15.0043 67.4833 14.7444C67.5835 14.4845 67.6336 14.1819 67.6336 13.8367C67.6336 13.4958 67.5845 13.1975 67.4865 12.9418C67.3885 12.6862 67.2447 12.4869 67.0551 12.3442C66.8654 12.2014 66.6311 12.1301 66.352 12.1301C66.0643 12.1301 65.8246 12.2046 65.6328 12.3538C65.4411 12.5029 65.2962 12.7064 65.1982 12.9642C65.1023 13.222 65.0544 13.5129 65.0544 13.8367C65.0544 14.1649 65.1034 14.46 65.2014 14.722C65.2994 14.9841 65.4443 15.1918 65.636 15.3453C65.8299 15.4965 66.0686 15.5722 66.352 15.5722Z" fill="black"/>
<path d="M72.3956 16.2913V9.74582H73.3512V12.178H73.4088C73.4642 12.0757 73.5441 11.9575 73.6485 11.8232C73.7529 11.689 73.8978 11.5718 74.0831 11.4717C74.2685 11.3694 74.5135 11.3183 74.8182 11.3183C75.2145 11.3183 75.5682 11.4184 75.8793 11.6187C76.1904 11.819 76.4343 12.1077 76.6112 12.4848C76.7902 12.8619 76.8797 13.3158 76.8797 13.8463C76.8797 14.3769 76.7912 14.8318 76.6144 15.211C76.4375 15.5881 76.1946 15.879 75.8857 16.0835C75.5767 16.2859 75.2241 16.3872 74.8278 16.3872C74.5295 16.3872 74.2855 16.3371 74.0959 16.2369C73.9084 16.1368 73.7614 16.0196 73.6549 15.8854C73.5483 15.7511 73.4663 15.6318 73.4088 15.5274H73.3289V16.2913H72.3956ZM73.3321 13.8367C73.3321 14.1819 73.3821 14.4845 73.4823 14.7444C73.5824 15.0043 73.7273 15.2078 73.9169 15.3548C74.1066 15.4997 74.3388 15.5722 74.6137 15.5722C74.8992 15.5722 75.1378 15.4965 75.3296 15.3453C75.5213 15.1918 75.6662 14.9841 75.7642 14.722C75.8644 14.46 75.9145 14.1649 75.9145 13.8367C75.9145 13.5129 75.8654 13.222 75.7674 12.9642C75.6716 12.7064 75.5267 12.5029 75.3328 12.3538C75.141 12.2046 74.9013 12.1301 74.6137 12.1301C74.3367 12.1301 74.1023 12.2014 73.9105 12.3442C73.7209 12.4869 73.5771 12.6862 73.4791 12.9418C73.3811 13.1975 73.3321 13.4958 73.3321 13.8367Z" fill="black"/>
<path d="M78.3898 18.1322C78.247 18.1322 78.117 18.1205 77.9999 18.097C77.8827 18.0757 77.7953 18.0523 77.7378 18.0267L77.9679 17.2437C78.1426 17.2906 78.2982 17.3108 78.4345 17.3044C78.5709 17.298 78.6913 17.2469 78.7957 17.151C78.9022 17.0551 78.9959 16.8985 79.0769 16.6812L79.1952 16.3552L77.399 11.3822H78.4217L79.665 15.1918H79.7161L80.9594 11.3822H81.9853L79.9622 16.9465C79.8685 17.2021 79.7491 17.4184 79.6043 17.5953C79.4594 17.7742 79.2868 17.9085 79.0865 17.998C78.8862 18.0874 78.654 18.1322 78.3898 18.1322Z" fill="black"/>
<path d="M34.1695 22.6763C34.353 22.6763 34.4004 22.7236 34.4537 22.7946L36.8395 25.9766H36.9224L39.2253 22.8123C39.2904 22.7295 39.3911 22.6822 39.5213 22.6822H40.9658C41.1138 22.6822 41.1671 22.8123 41.096 22.8951L37.8637 26.9525L41.4631 31.4711C41.546 31.5894 41.4986 31.7018 41.3447 31.7018H39.8883C39.7581 31.7018 39.6397 31.6545 39.5568 31.5362L36.8691 27.9283H36.7862L34.2228 31.5243C34.1222 31.6426 34.0097 31.7077 33.8735 31.7077H32.429C32.3106 31.7077 32.2455 31.6071 32.3284 31.4948L35.8745 26.9879L32.6777 22.9306C32.6125 22.8123 32.6421 22.6822 32.7961 22.6822H34.1695V22.6763Z" fill="#1A1A1A"/>
<path d="M48.4606 22.6763C50.432 22.6763 51.8587 24.1017 51.8587 25.9056C51.8587 27.7627 50.432 29.1526 48.4606 29.1526H45.5953V31.4711C45.5953 31.619 45.5302 31.7018 45.394 31.7018H44.3165C44.1685 31.7018 44.0857 31.619 44.0857 31.4711V22.9129C44.0857 22.765 44.1685 22.6822 44.3165 22.6822H48.4606V22.6763ZM48.4606 27.745C49.6683 27.745 50.3491 26.9643 50.3491 25.9056C50.3491 24.8647 49.6683 24.0839 48.4606 24.0839H45.5953V27.745H48.4606Z" fill="#1A1A1A"/>
<path d="M55.0262 29.6315C55.6241 29.6315 56.1391 30.1283 56.1391 30.7257C56.1391 31.3231 55.6241 31.8376 55.0262 31.8376C54.4282 31.8376 53.9309 31.3231 53.9309 30.7257C53.9309 30.1283 54.4282 29.6315 55.0262 29.6315Z" fill="#1A1A1A"/>
<path d="M66.1321 31.7018C66.0137 31.7018 65.919 31.6544 65.8479 31.5539L62.8819 27.81L60.6797 24.7818L60.5968 24.7996L60.6974 27.4847V31.477C60.6974 31.6249 60.6145 31.7077 60.4488 31.7077H59.4068C59.2766 31.7077 59.2056 31.6249 59.2056 31.477V22.9129C59.2056 22.765 59.2707 22.6822 59.4187 22.6822H60.3955C60.5613 22.6822 60.6915 22.7295 60.7744 22.8478L63.9594 26.8223L65.9486 29.5725L66.0314 29.5548L65.913 26.8874V22.9129C65.913 22.765 65.9959 22.6822 66.1439 22.6822H67.1859C67.3339 22.6822 67.399 22.765 67.399 22.9129V31.477C67.399 31.6249 67.3339 31.7077 67.1859 31.7077H66.1321V31.7018Z" fill="#1A1A1A"/>
<path d="M77.4692 22.6763C77.5876 22.6763 77.7001 22.7768 77.7001 22.907V23.8533C77.7001 23.9716 77.5817 24.0662 77.4692 24.0662H72.2299V26.3019H77.0015C77.1495 26.3019 77.2324 26.3847 77.2324 26.5325V27.4788C77.2324 27.6267 77.1495 27.6918 77.0015 27.6918H72.2299V30.2941H77.635C77.783 30.2941 77.8481 30.3592 77.8481 30.4952V31.4711C77.8481 31.619 77.783 31.7018 77.635 31.7018H70.9394C70.7913 31.7018 70.7262 31.619 70.7262 31.4711V22.9129C70.7262 22.765 70.7913 22.6822 70.9394 22.6822H77.4692V22.6763Z" fill="#1A1A1A"/>
<path d="M88.2082 22.6763C88.3562 22.6763 88.439 22.7591 88.439 22.907V23.8533C88.439 24.0011 88.3562 24.0839 88.2082 24.0839H85.1415V31.4711C85.1415 31.5894 85.0587 31.7018 84.9107 31.7018H83.8687C83.7207 31.7018 83.6378 31.619 83.6378 31.4711V24.0839H80.5712C80.4232 24.0839 80.3403 24.0011 80.3403 23.8533V22.907C80.3403 22.7591 80.4232 22.6763 80.5712 22.6763H88.2082Z" fill="#1A1A1A"/>
<path d="M92.0741 22.6763C92.2221 22.6763 92.3049 22.7236 92.3405 22.8419L94.4303 29.9452H94.5131L96.5201 22.8419C96.5556 22.7236 96.6385 22.6763 96.7509 22.6763H97.8639C97.9823 22.6763 98.0652 22.7236 98.0948 22.8419L100.149 29.9452H100.232L102.304 22.8596C102.34 22.7414 102.422 22.6763 102.535 22.6763H103.76C103.908 22.6763 103.962 22.7414 103.908 22.8892L101.09 31.5007C101.043 31.6308 100.942 31.7018 100.806 31.7018H99.4327C99.3025 31.7018 99.2196 31.6367 99.1663 31.4889L97.343 25.1485H97.2601L95.4544 31.5066C95.4189 31.6367 95.336 31.7077 95.2236 31.7077H93.8323C93.6843 31.7077 93.5837 31.6426 93.5363 31.5066L90.7006 22.8596C90.6532 22.7414 90.7006 22.6763 90.8486 22.6763H92.0741Z" fill="#1A1A1A"/>
<path d="M110.823 22.5461C113.44 22.5461 115.482 24.4979 115.482 27.2008C115.482 29.8859 113.445 31.8377 110.823 31.8377C108.206 31.8377 106.164 29.8859 106.164 27.2008C106.164 24.4979 108.2 22.5461 110.823 22.5461ZM107.685 27.2008C107.685 29.0579 108.964 30.4301 110.817 30.4301C112.676 30.4301 113.949 29.0579 113.949 27.2008C113.949 25.3318 112.67 23.9537 110.817 23.9537C108.964 23.9537 107.685 25.3259 107.685 27.2008Z" fill="#1A1A1A"/>
<path d="M122.841 22.6763C124.812 22.6763 126.257 24.1017 126.257 25.9056C126.257 27.1654 125.576 28.2241 124.534 28.7564L126.043 31.4415C126.126 31.5894 126.043 31.7077 125.86 31.7077H124.652C124.504 31.7077 124.386 31.5894 124.321 31.477L123.113 29.1408C123.066 29.1586 122.983 29.1586 122.882 29.1586H119.981V31.477C119.981 31.6249 119.916 31.7077 119.768 31.7077H118.726C118.543 31.7077 118.478 31.5894 118.478 31.477V22.9129C118.478 22.765 118.56 22.6822 118.708 22.6822H122.841V22.6763ZM122.841 27.745C124.048 27.745 124.747 26.9643 124.747 25.9056C124.747 24.8647 124.048 24.0839 122.841 24.0839H119.975V27.745H122.841Z" fill="#1A1A1A"/>
<path d="M130.679 22.6763C130.827 22.6763 130.91 22.7591 130.91 22.907V26.8815L135.184 22.8596C135.303 22.7414 135.468 22.6763 135.664 22.6763H137.156C137.304 22.6763 137.369 22.8242 137.256 22.9425L133.278 26.568L137.469 31.4179C137.588 31.5362 137.517 31.7018 137.339 31.7018H136.013C135.812 31.7018 135.646 31.6367 135.516 31.4889L132.183 27.5498L130.904 28.5789V31.477C130.904 31.6249 130.821 31.7077 130.673 31.7077H129.631C129.483 31.7077 129.4 31.6249 129.4 31.477V22.9129C129.4 22.765 129.483 22.6822 129.631 22.6822H130.679V22.6763Z" fill="#1A1A1A"/>
</svg>
