<svg xmlns="http://www.w3.org/2000/svg" width="24" height="24" fill="none" viewBox="0 0 24 24"><path fill="#060707" d="M18.7682 5.32998C17.4382 4.70998 15.9982 4.25998 14.4982 3.99998C14.485 3.99956 14.4719 4.00203 14.4598 4.00722C14.4477 4.0124 14.4369 4.02017 14.4282 4.02999C14.2482 4.35999 14.0382 4.78998 13.8982 5.11998C12.3072 4.87998 10.6892 4.87998 9.09816 5.11998C8.95816 4.77998 8.74816 4.35999 8.55816 4.02999C8.54816 4.00999 8.51816 3.99998 8.48816 3.99998C6.98816 4.25998 5.55816 4.70998 4.21816 5.32998C4.20816 5.32998 4.19816 5.33998 4.18816 5.34998C1.46816 9.41998 0.718164 13.38 1.08816 17.3C1.08816 17.32 1.09816 17.34 1.11816 17.35C2.91816 18.67 4.64816 19.47 6.35816 20C6.38816 20.01 6.41816 20 6.42816 19.98C6.82816 19.43 7.18816 18.85 7.49816 18.24C7.51816 18.2 7.49816 18.16 7.45816 18.15C6.88816 17.93 6.34816 17.67 5.81816 17.37C5.77816 17.35 5.77816 17.29 5.80816 17.26C5.91816 17.18 6.02816 17.09 6.13816 17.01C6.15816 16.99 6.18816 16.99 6.20816 17C9.64816 18.57 13.3582 18.57 16.7582 17C16.7782 16.99 16.8082 16.99 16.8282 17.01C16.9382 17.1 17.0482 17.18 17.1582 17.27C17.1982 17.3 17.1982 17.36 17.1482 17.38C16.6282 17.69 16.0782 17.94 15.5082 18.16C15.4682 18.17 15.4582 18.22 15.4682 18.25C15.7882 18.86 16.1482 19.44 16.5382 19.99C16.5682 20 16.5982 20.01 16.6282 20C18.3482 19.47 20.0782 18.67 21.8782 17.35C21.8982 17.34 21.9082 17.32 21.9082 17.3C22.3482 12.77 21.1782 8.83998 18.8082 5.34998C18.7982 5.33998 18.7882 5.32998 18.7682 5.32998ZM8.01816 14.91C6.98816 14.91 6.12816 13.96 6.12816 12.79C6.12816 11.62 6.96816 10.67 8.01816 10.67C9.07817 10.67 9.91816 11.63 9.90816 12.79C9.90816 13.96 9.06816 14.91 8.01816 14.91ZM14.9882 14.91C13.9582 14.91 13.0982 13.96 13.0982 12.79C13.0982 11.62 13.9382 10.67 14.9882 10.67C16.0482 10.67 16.8882 11.63 16.8782 12.79C16.8782 13.96 16.0482 14.91 14.9882 14.91Z"/></svg>