<svg xmlns="http://www.w3.org/2000/svg" width="24" height="24" fill="none" viewBox="0 0 24 24"><path fill="#060707" d="M11.998 9.3322C10.529 9.3322 9.3302 10.531 9.3302 12C9.3302 13.469 10.529 14.6678 11.998 14.6678C13.467 14.6678 14.6658 13.469 14.6658 12C14.6658 10.531 13.467 9.3322 11.998 9.3322ZM19.9994 12C19.9994 10.8953 20.0094 9.80051 19.9474 8.69777C19.8853 7.4169 19.5931 6.28014 18.6565 5.3435C17.7179 4.40487 16.5831 4.11467 15.3022 4.05263C14.1975 3.99059 13.1027 4.0006 12 4.0006C10.8953 4.0006 9.80051 3.99059 8.69777 4.05263C7.4169 4.11467 6.28014 4.40687 5.3435 5.3435C4.40487 6.28214 4.11467 7.4169 4.05263 8.69777C3.99059 9.80252 4.0006 10.8973 4.0006 12C4.0006 13.1027 3.99059 14.1995 4.05263 15.3022C4.11467 16.5831 4.40687 17.7199 5.3435 18.6565C6.28214 19.5951 7.4169 19.8853 8.69777 19.9474C9.80252 20.0094 10.8973 19.9994 12 19.9994C13.1047 19.9994 14.1995 20.0094 15.3022 19.9474C16.5831 19.8853 17.7199 19.5931 18.6565 18.6565C19.5951 17.7179 19.8853 16.5831 19.9474 15.3022C20.0114 14.1995 19.9994 13.1047 19.9994 12ZM11.998 16.1048C9.72646 16.1048 7.89323 14.2715 7.89323 12C7.89323 9.72847 9.72646 7.89523 11.998 7.89523C14.2695 7.89523 16.1028 9.72847 16.1028 12C16.1028 14.2715 14.2695 16.1048 11.998 16.1048ZM16.2709 8.68576C15.7405 8.68576 15.3122 8.25747 15.3122 7.72711C15.3122 7.19675 15.7405 6.76847 16.2709 6.76847C16.8012 6.76847 17.2295 7.19675 17.2295 7.72711C17.2297 7.85305 17.205 7.97778 17.1569 8.09416C17.1088 8.21054 17.0382 8.31628 16.9491 8.40533C16.8601 8.49438 16.7543 8.56499 16.6379 8.61311C16.5216 8.66123 16.3968 8.68592 16.2709 8.68576Z"/></svg>