<svg xmlns="http://www.w3.org/2000/svg" width="24" height="24" fill="none" viewBox="0 0 24 24"><path fill="#060707" d="M19.6441 6.52275C20.5012 6.01811 21.1425 5.22349 21.4483 4.28726C20.6429 4.75792 19.7618 5.08946 18.8429 5.26753C18.2232 4.62188 17.4051 4.1949 16.5146 4.05242C15.6242 3.90993 14.7109 4.05984 13.9155 4.47904C13.1201 4.89824 12.4868 5.56345 12.1132 6.37215C11.7395 7.18084 11.6464 8.08811 11.848 8.95411C10.2167 8.87345 8.62094 8.45586 7.16418 7.72843C5.70742 7.00101 4.42225 5.98002 3.3921 4.73172C2.86821 5.62169 2.7079 6.67467 2.94373 7.67682C3.17956 8.67898 3.79384 9.55516 4.66182 10.1274C4.01043 10.1068 3.37348 9.93309 2.80409 9.6208V9.67165C2.80427 10.6048 3.13217 11.5092 3.73216 12.2314C4.33215 12.9536 5.1673 13.4492 6.09599 13.6341C5.49179 13.796 4.85802 13.8199 4.24304 13.7038C4.50572 14.5064 5.01626 15.2082 5.70342 15.7113C6.39058 16.2143 7.22006 16.4936 8.07611 16.51C6.62265 17.6335 4.82769 18.2428 2.98002 18.2398C2.65207 18.2398 2.32508 18.2209 2 18.1842C3.87629 19.3716 6.06002 20.0019 8.29028 19.9997C9.82637 20.0101 11.3493 19.7198 12.7705 19.1456C14.1917 18.5714 15.4828 17.7248 16.569 16.655C17.6552 15.5852 18.5147 14.3134 19.0976 12.9137C19.6804 11.5139 19.9751 10.014 19.9644 8.50117C19.9644 8.32602 19.9606 8.15182 19.952 7.97855C20.7556 7.40661 21.4491 6.69806 22 5.88619C21.2514 6.213 20.4573 6.42756 19.6441 6.52275Z"/></svg>